<svg xmlns="http://www.w3.org/2000/svg" width="12.03" height="23.03" viewBox="0 0 12.03 23.03">
  <defs>
    <style>
      .cls-1 {
        fill: #898690;
        fill-rule: evenodd;
      }
    </style>
  </defs>
  <path id="facebook" class="cls-1" d="M1094.54,1711.03l-3.13-.01c-3.32,0-5.47,1.79-5.47,5.2v2.75h-2.48a0.459,0.459,0,0,0-.46.46v3a0.459,0.459,0,0,0,.46.46h2.48v10.7a0.467,0.467,0,0,0,.46.47h4.14a0.467,0.467,0,0,0,.46-0.47v-10.7h3.56a0.467,0.467,0,0,0,.47-0.46v-3a0.994,0.994,0,0,0-.13-0.49,0.435,0.435,0,0,0-.33.03H1091v-2.36c0-1.05.25-1.59,1.63-1.59h1.91a0.459,0.459,0,0,0,.46-0.46v-3.07A0.459,0.459,0,0,0,1094.54,1711.03Z" transform="translate(-1083 -1711.03)"/>
</svg>
