<svg xmlns="http://www.w3.org/2000/svg" width="22.75" height="18.97" viewBox="0 0 22.75 18.97">
  <defs>
    <style>
      .cls-1 {
        fill: #898690;
        fill-rule: evenodd;
      }
    </style>
  </defs>
  <path id="twitter" class="cls-1" d="M1139.87,1716.55a6.683,6.683,0,0,1-2.38,2.51c0.01,0.14.03,0.27,0.03,0.38s0.02,0.25.02,0.38a12.726,12.726,0,0,1-.24,2.34,14.557,14.557,0,0,1-.75,2.57,17.764,17.764,0,0,1-1.28,2.59,13.458,13.458,0,0,1-1.84,2.37,12.751,12.751,0,0,1-2.42,1.93,10.492,10.492,0,0,1-3.03,1.24,17.856,17.856,0,0,1-3.9.43q-0.84,0-1.74-.09a11.367,11.367,0,0,1-1.8-.33,10.731,10.731,0,0,1-1.77-.64,7.834,7.834,0,0,1-1.64-1.04,8.059,8.059,0,0,0,3.74-.32,11.461,11.461,0,0,0,3.21-1.69,8.59,8.59,0,0,1-.88-0.06,3.417,3.417,0,0,1-1.16-.38,4.692,4.692,0,0,1-1.26-.98,5.732,5.732,0,0,1-1.11-1.85,1.425,1.425,0,0,0,.41.06,3.657,3.657,0,0,0,.57-0.01l0.6-.06c0.19-.03.37-0.06,0.52-0.09a5.446,5.446,0,0,1-2.07-1.08,4.833,4.833,0,0,1-1.1-1.38,4.283,4.283,0,0,1-.44-1.34,7.729,7.729,0,0,1-.09-0.99,5.713,5.713,0,0,0,.96.43,2.922,2.922,0,0,0,1.14.2,6.267,6.267,0,0,1-1.51-1.71,4.378,4.378,0,0,1-.46-3.21,7.437,7.437,0,0,1,.48-1.47,16.438,16.438,0,0,0,2.77,2.55,14.542,14.542,0,0,0,2.64,1.51,10.761,10.761,0,0,0,2.34.71,11.913,11.913,0,0,0,1.91.18,6.264,6.264,0,0,1-.02-1.93,4.8,4.8,0,0,1,.59-1.68,4.253,4.253,0,0,1,1.17-1.3,5.255,5.255,0,0,1,1.75-.83,4.049,4.049,0,0,1,2.39.03,4.3,4.3,0,0,1,1.95,1.32,6.593,6.593,0,0,0,1.11-.23,8.1,8.1,0,0,0,1.91-.89c-0.06.17-.14,0.38-0.25,0.62a5.557,5.557,0,0,1-.41.75,5.2,5.2,0,0,1-.61.74,3.328,3.328,0,0,1-.81.58c0.25-.05.53-0.11,0.83-0.18,0.26-.06.55-0.15,0.89-0.26A10.482,10.482,0,0,0,1139.87,1716.55Z" transform="translate(-1117.13 -1714.31)"/>
</svg>
